<?xml version="1.0" encoding="utf-8" standalone="no"?>
<!DOCTYPE svg PUBLIC "-//W3C//DTD SVG 1.1//EN"
  "http://www.w3.org/Graphics/SVG/1.1/DTD/svg11.dtd">
<svg xmlns:xlink="http://www.w3.org/1999/xlink" width="864pt" height="360pt" viewBox="0 0 864 360" xmlns="http://www.w3.org/2000/svg" version="1.1">
 <metadata>
  <rdf:RDF xmlns:dc="http://purl.org/dc/elements/1.1/" xmlns:cc="http://creativecommons.org/ns#" xmlns:rdf="http://www.w3.org/1999/02/22-rdf-syntax-ns#">
   <cc:Work>
    <dc:type rdf:resource="http://purl.org/dc/dcmitype/StillImage"/>
    <dc:date>2026-02-26T18:46:20.663993</dc:date>
    <dc:format>image/svg+xml</dc:format>
    <dc:creator>
     <cc:Agent>
      <dc:title>Matplotlib v3.7.1, https://matplotlib.org/</dc:title>
     </cc:Agent>
    </dc:creator>
   </cc:Work>
  </rdf:RDF>
 </metadata>
 <defs>
  <style type="text/css">*{stroke-linejoin: round; stroke-linecap: butt}</style>
 </defs>
 <g id="figure_1">
  <g id="patch_1">
   <path d="M 0 360 
L 864 360 
L 864 0 
L 0 0 
z
" style="fill: var(--bg)"/>
  </g>
  <g id="axes_1">
   <g id="patch_2">
    <path d="M 33.73 318.04 
L 436.315 318.04 
L 436.315 26.88 
L 33.73 26.88 
z
" style="fill: var(--surface)"/>
   </g>
   <g id="patch_3">
    <path d="M 162.245945 318.04 
L 170.40643 318.04 
L 170.40643 317.516966 
L 162.245945 317.516966 
z
" clip-path="url(#p0387f43789)" style="fill: var(--accent); opacity: 0.9"/>
   </g>
   <g id="patch_4">
    <path d="M 170.40643 318.04 
L 178.566915 318.04 
L 178.566915 317.081104 
L 170.40643 317.081104 
z
" clip-path="url(#p0387f43789)" style="fill: var(--accent); opacity: 0.9"/>
   </g>
   <g id="patch_5">
    <path d="M 178.566915 318.04 
L 186.7274 318.04 
L 186.7274 316.209381 
L 178.566915 316.209381 
z
" clip-path="url(#p0387f43789)" style="fill: var(--accent); opacity: 0.9"/>
   </g>
   <g id="patch_6">
    <path d="M 186.7274 318.04 
L 194.887885 318.04 
L 194.887885 312.635314 
L 186.7274 312.635314 
z
" clip-path="url(#p0387f43789)" style="fill: var(--accent); opacity: 0.9"/>
   </g>
   <g id="patch_7">
    <path d="M 194.887885 318.04 
L 203.048369 318.04 
L 203.048369 302.43615 
L 194.887885 302.43615 
z
" clip-path="url(#p0387f43789)" style="fill: var(--accent); opacity: 0.9"/>
   </g>
   <g id="patch_8">
    <path d="M 203.048369 318.04 
L 211.208854 318.04 
L 211.208854 284.740163 
L 203.048369 284.740163 
z
" clip-path="url(#p0387f43789)" style="fill: var(--accent); opacity: 0.9"/>
   </g>
   <g id="patch_9">
    <path d="M 211.208854 318.04 
L 219.369339 318.04 
L 219.369339 259.721699 
L 211.208854 259.721699 
z
" clip-path="url(#p0387f43789)" style="fill: var(--accent); opacity: 0.9"/>
   </g>
   <g id="patch_10">
    <path d="M 219.369339 318.04 
L 227.529824 318.04 
L 227.529824 192.16313 
L 219.369339 192.16313 
z
" clip-path="url(#p0387f43789)" style="fill: var(--accent); opacity: 0.9"/>
   </g>
   <g id="patch_11">
    <path d="M 227.529824 318.04 
L 235.690309 318.04 
L 235.690309 152.586884 
L 227.529824 152.586884 
z
" clip-path="url(#p0387f43789)" style="fill: var(--accent); opacity: 0.9"/>
   </g>
   <g id="patch_12">
    <path d="M 235.690309 318.04 
L 243.850794 318.04 
L 243.850794 83.807902 
L 235.690309 83.807902 
z
" clip-path="url(#p0387f43789)" style="fill: var(--accent); opacity: 0.9"/>
   </g>
   <g id="patch_13">
    <path d="M 243.850794 318.04 
L 252.011279 318.04 
L 252.011279 40.744762 
L 243.850794 40.744762 
z
" clip-path="url(#p0387f43789)" style="fill: var(--accent); opacity: 0.9"/>
   </g>
   <g id="patch_14">
    <path d="M 252.011279 318.04 
L 260.171763 318.04 
L 260.171763 84.679625 
L 252.011279 84.679625 
z
" clip-path="url(#p0387f43789)" style="fill: var(--accent); opacity: 0.9"/>
   </g>
   <g id="patch_15">
    <path d="M 260.171763 318.04 
L 268.332248 318.04 
L 268.332248 119.287047 
L 260.171763 119.287047 
z
" clip-path="url(#p0387f43789)" style="fill: var(--accent); opacity: 0.9"/>
   </g>
   <g id="patch_16">
    <path d="M 268.332248 318.04 
L 276.492733 318.04 
L 276.492733 180.482035 
L 268.332248 180.482035 
z
" clip-path="url(#p0387f43789)" style="fill: var(--accent); opacity: 0.9"/>
   </g>
   <g id="patch_17">
    <path d="M 276.492733 318.04 
L 284.653218 318.04 
L 284.653218 243.943504 
L 276.492733 243.943504 
z
" clip-path="url(#p0387f43789)" style="fill: var(--accent); opacity: 0.9"/>
   </g>
   <g id="patch_18">
    <path d="M 284.653218 318.04 
L 292.813703 318.04 
L 292.813703 282.38651 
L 284.653218 282.38651 
z
" clip-path="url(#p0387f43789)" style="fill: var(--accent); opacity: 0.9"/>
   </g>
   <g id="patch_19">
    <path d="M 292.813703 318.04 
L 300.974188 318.04 
L 300.974188 302.261805 
L 292.813703 302.261805 
z
" clip-path="url(#p0387f43789)" style="fill: var(--accent); opacity: 0.9"/>
   </g>
   <g id="patch_20">
    <path d="M 300.974188 318.04 
L 309.134673 318.04 
L 309.134673 312.286625 
L 300.974188 312.286625 
z
" clip-path="url(#p0387f43789)" style="fill: var(--accent); opacity: 0.9"/>
   </g>
   <g id="patch_21">
    <path d="M 309.134673 318.04 
L 317.295157 318.04 
L 317.295157 316.906759 
L 309.134673 316.906759 
z
" clip-path="url(#p0387f43789)" style="fill: var(--accent); opacity: 0.9"/>
   </g>
   <g id="patch_22">
    <path d="M 317.295157 318.04 
L 325.455642 318.04 
L 325.455642 317.778483 
L 317.295157 317.778483 
z
" clip-path="url(#p0387f43789)" style="fill: var(--accent); opacity: 0.9"/>
   </g>
   <g id="matplotlib.axis_1">
    <g id="xtick_1">
     <g id="line2d_1">
      <defs>
       <path id="mdc78d85ec4" d="M 0 0 
L 0 3.5 
" style="stroke: var(--text); stroke-width: 0.8"/>
      </defs>
      <g>
       <use xlink:href="#mdc78d85ec4" x="88.627955" y="318.04" style="fill: var(--text); stroke: var(--text); stroke-width: 0.8"/>
      </g>
     </g>
     <g id="text_1">
      <!-- −2 -->
      <g style="fill: var(--text)" transform="translate(81.256861 332.638438) scale(0.1 -0.1)">
       <defs>
        <path id="DejaVuSans-2212" d="M 678 2272 
L 4684 2272 
L 4684 1741 
L 678 1741 
L 678 2272 
z
" transform="scale(0.015625)"/>
        <path id="DejaVuSans-32" d="M 1228 531 
L 3431 531 
L 3431 0 
L 469 0 
L 469 531 
Q 828 903 1448 1529 
Q 2069 2156 2228 2338 
Q 2531 2678 2651 2914 
Q 2772 3150 2772 3378 
Q 2772 3750 2511 3984 
Q 2250 4219 1831 4219 
Q 1534 4219 1204 4116 
Q 875 4013 500 3803 
L 500 4441 
Q 881 4594 1212 4672 
Q 1544 4750 1819 4750 
Q 2544 4750 2975 4387 
Q 3406 4025 3406 3419 
Q 3406 3131 3298 2873 
Q 3191 2616 2906 2266 
Q 2828 2175 2409 1742 
Q 1991 1309 1228 531 
z
" transform="scale(0.015625)"/>
       </defs>
       <use xlink:href="#DejaVuSans-2212"/>
       <use xlink:href="#DejaVuSans-32" x="83.789062"/>
      </g>
     </g>
    </g>
    <g id="xtick_2">
     <g id="line2d_2">
      <g>
       <use xlink:href="#mdc78d85ec4" x="161.825227" y="318.04" style="fill: var(--text); stroke: var(--text); stroke-width: 0.8"/>
      </g>
     </g>
     <g id="text_2">
      <!-- −1 -->
      <g style="fill: var(--text)" transform="translate(154.454134 332.638438) scale(0.1 -0.1)">
       <defs>
        <path id="DejaVuSans-31" d="M 794 531 
L 1825 531 
L 1825 4091 
L 703 3866 
L 703 4441 
L 1819 4666 
L 2450 4666 
L 2450 531 
L 3481 531 
L 3481 0 
L 794 0 
L 794 531 
z
" transform="scale(0.015625)"/>
       </defs>
       <use xlink:href="#DejaVuSans-2212"/>
       <use xlink:href="#DejaVuSans-31" x="83.789062"/>
      </g>
     </g>
    </g>
    <g id="xtick_3">
     <g id="line2d_3">
      <g>
       <use xlink:href="#mdc78d85ec4" x="235.0225" y="318.04" style="fill: var(--text); stroke: var(--text); stroke-width: 0.8"/>
      </g>
     </g>
     <g id="text_3">
      <!-- 0 -->
      <g style="fill: var(--text)" transform="translate(231.84125 332.638438) scale(0.1 -0.1)">
       <defs>
        <path id="DejaVuSans-30" d="M 2034 4250 
Q 1547 4250 1301 3770 
Q 1056 3291 1056 2328 
Q 1056 1369 1301 889 
Q 1547 409 2034 409 
Q 2525 409 2770 889 
Q 3016 1369 3016 2328 
Q 3016 3291 2770 3770 
Q 2525 4250 2034 4250 
z
M 2034 4750 
Q 2819 4750 3233 4129 
Q 3647 3509 3647 2328 
Q 3647 1150 3233 529 
Q 2819 -91 2034 -91 
Q 1250 -91 836 529 
Q 422 1150 422 2328 
Q 422 3509 836 4129 
Q 1250 4750 2034 4750 
z
" transform="scale(0.015625)"/>
       </defs>
       <use xlink:href="#DejaVuSans-30"/>
      </g>
     </g>
    </g>
    <g id="xtick_4">
     <g id="line2d_4">
      <g>
       <use xlink:href="#mdc78d85ec4" x="308.219773" y="318.04" style="fill: var(--text); stroke: var(--text); stroke-width: 0.8"/>
      </g>
     </g>
     <g id="text_4">
      <!-- 1 -->
      <g style="fill: var(--text)" transform="translate(305.038523 332.638438) scale(0.1 -0.1)">
       <use xlink:href="#DejaVuSans-31"/>
      </g>
     </g>
    </g>
    <g id="xtick_5">
     <g id="line2d_5">
      <g>
       <use xlink:href="#mdc78d85ec4" x="381.417045" y="318.04" style="fill: var(--text); stroke: var(--text); stroke-width: 0.8"/>
      </g>
     </g>
     <g id="text_5">
      <!-- 2 -->
      <g style="fill: var(--text)" transform="translate(378.235795 332.638438) scale(0.1 -0.1)">
       <use xlink:href="#DejaVuSans-32"/>
      </g>
     </g>
    </g>
    <g id="text_6">
     <!-- HLTV Rating 3.0 -->
     <g style="fill: var(--text)" transform="translate(195.442031 346.316563) scale(0.1 -0.1)">
      <defs>
       <path id="DejaVuSans-48" d="M 628 4666 
L 1259 4666 
L 1259 2753 
L 3553 2753 
L 3553 4666 
L 4184 4666 
L 4184 0 
L 3553 0 
L 3553 2222 
L 1259 2222 
L 1259 0 
L 628 0 
L 628 4666 
z
" transform="scale(0.015625)"/>
       <path id="DejaVuSans-4c" d="M 628 4666 
L 1259 4666 
L 1259 531 
L 3531 531 
L 3531 0 
L 628 0 
L 628 4666 
z
" transform="scale(0.015625)"/>
       <path id="DejaVuSans-54" d="M -19 4666 
L 3928 4666 
L 3928 4134 
L 2272 4134 
L 2272 0 
L 1638 0 
L 1638 4134 
L -19 4134 
L -19 4666 
z
" transform="scale(0.015625)"/>
       <path id="DejaVuSans-56" d="M 1831 0 
L 50 4666 
L 709 4666 
L 2188 738 
L 3669 4666 
L 4325 4666 
L 2547 0 
L 1831 0 
z
" transform="scale(0.015625)"/>
       <path id="DejaVuSans-20" transform="scale(0.015625)"/>
       <path id="DejaVuSans-52" d="M 2841 2188 
Q 3044 2119 3236 1894 
Q 3428 1669 3622 1275 
L 4263 0 
L 3584 0 
L 2988 1197 
Q 2756 1666 2539 1819 
Q 2322 1972 1947 1972 
L 1259 1972 
L 1259 0 
L 628 0 
L 628 4666 
L 2053 4666 
Q 2853 4666 3247 4331 
Q 3641 3997 3641 3322 
Q 3641 2881 3436 2590 
Q 3231 2300 2841 2188 
z
M 1259 4147 
L 1259 2491 
L 2053 2491 
Q 2509 2491 2742 2702 
Q 2975 2913 2975 3322 
Q 2975 3731 2742 3939 
Q 2509 4147 2053 4147 
L 1259 4147 
z
" transform="scale(0.015625)"/>
       <path id="DejaVuSans-61" d="M 2194 1759 
Q 1497 1759 1228 1600 
Q 959 1441 959 1056 
Q 959 750 1161 570 
Q 1363 391 1709 391 
Q 2188 391 2477 730 
Q 2766 1069 2766 1631 
L 2766 1759 
L 2194 1759 
z
M 3341 1997 
L 3341 0 
L 2766 0 
L 2766 531 
Q 2569 213 2275 61 
Q 1981 -91 1556 -91 
Q 1019 -91 701 211 
Q 384 513 384 1019 
Q 384 1609 779 1909 
Q 1175 2209 1959 2209 
L 2766 2209 
L 2766 2266 
Q 2766 2663 2505 2880 
Q 2244 3097 1772 3097 
Q 1472 3097 1187 3025 
Q 903 2953 641 2809 
L 641 3341 
Q 956 3463 1253 3523 
Q 1550 3584 1831 3584 
Q 2591 3584 2966 3190 
Q 3341 2797 3341 1997 
z
" transform="scale(0.015625)"/>
       <path id="DejaVuSans-74" d="M 1172 4494 
L 1172 3500 
L 2356 3500 
L 2356 3053 
L 1172 3053 
L 1172 1153 
Q 1172 725 1289 603 
Q 1406 481 1766 481 
L 2356 481 
L 2356 0 
L 1766 0 
Q 1100 0 847 248 
Q 594 497 594 1153 
L 594 3053 
L 172 3053 
L 172 3500 
L 594 3500 
L 594 4494 
L 1172 4494 
z
" transform="scale(0.015625)"/>
       <path id="DejaVuSans-69" d="M 603 3500 
L 1178 3500 
L 1178 0 
L 603 0 
L 603 3500 
z
M 603 4863 
L 1178 4863 
L 1178 4134 
L 603 4134 
L 603 4863 
z
" transform="scale(0.015625)"/>
       <path id="DejaVuSans-6e" d="M 3513 2113 
L 3513 0 
L 2938 0 
L 2938 2094 
Q 2938 2591 2744 2837 
Q 2550 3084 2163 3084 
Q 1697 3084 1428 2787 
Q 1159 2491 1159 1978 
L 1159 0 
L 581 0 
L 581 3500 
L 1159 3500 
L 1159 2956 
Q 1366 3272 1645 3428 
Q 1925 3584 2291 3584 
Q 2894 3584 3203 3211 
Q 3513 2838 3513 2113 
z
" transform="scale(0.015625)"/>
       <path id="DejaVuSans-67" d="M 2906 1791 
Q 2906 2416 2648 2759 
Q 2391 3103 1925 3103 
Q 1463 3103 1205 2759 
Q 947 2416 947 1791 
Q 947 1169 1205 825 
Q 1463 481 1925 481 
Q 2391 481 2648 825 
Q 2906 1169 2906 1791 
z
M 3481 434 
Q 3481 -459 3084 -895 
Q 2688 -1331 1869 -1331 
Q 1566 -1331 1297 -1286 
Q 1028 -1241 775 -1147 
L 775 -588 
Q 1028 -725 1275 -790 
Q 1522 -856 1778 -856 
Q 2344 -856 2625 -561 
Q 2906 -266 2906 331 
L 2906 616 
Q 2728 306 2450 153 
Q 2172 0 1784 0 
Q 1141 0 747 490 
Q 353 981 353 1791 
Q 353 2603 747 3093 
Q 1141 3584 1784 3584 
Q 2172 3584 2450 3431 
Q 2728 3278 2906 2969 
L 2906 3500 
L 3481 3500 
L 3481 434 
z
" transform="scale(0.015625)"/>
       <path id="DejaVuSans-33" d="M 2597 2516 
Q 3050 2419 3304 2112 
Q 3559 1806 3559 1356 
Q 3559 666 3084 287 
Q 2609 -91 1734 -91 
Q 1441 -91 1130 -33 
Q 819 25 488 141 
L 488 750 
Q 750 597 1062 519 
Q 1375 441 1716 441 
Q 2309 441 2620 675 
Q 2931 909 2931 1356 
Q 2931 1769 2642 2001 
Q 2353 2234 1838 2234 
L 1294 2234 
L 1294 2753 
L 1863 2753 
Q 2328 2753 2575 2939 
Q 2822 3125 2822 3475 
Q 2822 3834 2567 4026 
Q 2313 4219 1838 4219 
Q 1578 4219 1281 4162 
Q 984 4106 628 3988 
L 628 4550 
Q 988 4650 1302 4700 
Q 1616 4750 1894 4750 
Q 2613 4750 3031 4423 
Q 3450 4097 3450 3541 
Q 3450 3153 3228 2886 
Q 3006 2619 2597 2516 
z
" transform="scale(0.015625)"/>
       <path id="DejaVuSans-2e" d="M 684 794 
L 1344 794 
L 1344 0 
L 684 0 
L 684 794 
z
" transform="scale(0.015625)"/>
      </defs>
      <use xlink:href="#DejaVuSans-48"/>
      <use xlink:href="#DejaVuSans-4c" x="75.195312"/>
      <use xlink:href="#DejaVuSans-54" x="117.158203"/>
      <use xlink:href="#DejaVuSans-56" x="178.242188"/>
      <use xlink:href="#DejaVuSans-20" x="246.650391"/>
      <use xlink:href="#DejaVuSans-52" x="278.4375"/>
      <use xlink:href="#DejaVuSans-61" x="345.669922"/>
      <use xlink:href="#DejaVuSans-74" x="406.949219"/>
      <use xlink:href="#DejaVuSans-69" x="446.158203"/>
      <use xlink:href="#DejaVuSans-6e" x="473.941406"/>
      <use xlink:href="#DejaVuSans-67" x="537.320312"/>
      <use xlink:href="#DejaVuSans-20" x="600.796875"/>
      <use xlink:href="#DejaVuSans-33" x="632.583984"/>
      <use xlink:href="#DejaVuSans-2e" x="696.207031"/>
      <use xlink:href="#DejaVuSans-30" x="727.994141"/>
     </g>
    </g>
   </g>
   <g id="matplotlib.axis_2">
    <g id="ytick_1">
     <g id="line2d_6">
      <defs>
       <path id="mafe3d87ad4" d="M 0 0 
L -3.5 0 
" style="stroke: var(--text); stroke-width: 0.8"/>
      </defs>
      <g>
       <use xlink:href="#mafe3d87ad4" x="33.73" y="318.04" style="fill: var(--text); stroke: var(--text); stroke-width: 0.8"/>
      </g>
     </g>
     <g id="text_7">
      <!-- 0.0 -->
      <g style="fill: var(--text)" transform="translate(10.826875 321.839219) scale(0.1 -0.1)">
       <use xlink:href="#DejaVuSans-30"/>
       <use xlink:href="#DejaVuSans-2e" x="63.623047"/>
       <use xlink:href="#DejaVuSans-30" x="95.410156"/>
      </g>
     </g>
    </g>
    <g id="ytick_2">
     <g id="line2d_7">
      <g>
       <use xlink:href="#mafe3d87ad4" x="33.73" y="281.892964" style="fill: var(--text); stroke: var(--text); stroke-width: 0.8"/>
      </g>
     </g>
     <g id="text_8">
      <!-- 0.2 -->
      <g style="fill: var(--text)" transform="translate(10.826875 285.692183) scale(0.1 -0.1)">
       <use xlink:href="#DejaVuSans-30"/>
       <use xlink:href="#DejaVuSans-2e" x="63.623047"/>
       <use xlink:href="#DejaVuSans-32" x="95.410156"/>
      </g>
     </g>
    </g>
    <g id="ytick_3">
     <g id="line2d_8">
      <g>
       <use xlink:href="#mafe3d87ad4" x="33.73" y="245.745928" style="fill: var(--text); stroke: var(--text); stroke-width: 0.8"/>
      </g>
     </g>
     <g id="text_9">
      <!-- 0.4 -->
      <g style="fill: var(--text)" transform="translate(10.826875 249.545147) scale(0.1 -0.1)">
       <defs>
        <path id="DejaVuSans-34" d="M 2419 4116 
L 825 1625 
L 2419 1625 
L 2419 4116 
z
M 2253 4666 
L 3047 4666 
L 3047 1625 
L 3713 1625 
L 3713 1100 
L 3047 1100 
L 3047 0 
L 2419 0 
L 2419 1100 
L 313 1100 
L 313 1709 
L 2253 4666 
z
" transform="scale(0.015625)"/>
       </defs>
       <use xlink:href="#DejaVuSans-30"/>
       <use xlink:href="#DejaVuSans-2e" x="63.623047"/>
       <use xlink:href="#DejaVuSans-34" x="95.410156"/>
      </g>
     </g>
    </g>
    <g id="ytick_4">
     <g id="line2d_9">
      <g>
       <use xlink:href="#mafe3d87ad4" x="33.73" y="209.598892" style="fill: var(--text); stroke: var(--text); stroke-width: 0.8"/>
      </g>
     </g>
     <g id="text_10">
      <!-- 0.6 -->
      <g style="fill: var(--text)" transform="translate(10.826875 213.398111) scale(0.1 -0.1)">
       <defs>
        <path id="DejaVuSans-36" d="M 2113 2584 
Q 1688 2584 1439 2293 
Q 1191 2003 1191 1497 
Q 1191 994 1439 701 
Q 1688 409 2113 409 
Q 2538 409 2786 701 
Q 3034 994 3034 1497 
Q 3034 2003 2786 2293 
Q 2538 2584 2113 2584 
z
M 3366 4563 
L 3366 3988 
Q 3128 4100 2886 4159 
Q 2644 4219 2406 4219 
Q 1781 4219 1451 3797 
Q 1122 3375 1075 2522 
Q 1259 2794 1537 2939 
Q 1816 3084 2150 3084 
Q 2853 3084 3261 2657 
Q 3669 2231 3669 1497 
Q 3669 778 3244 343 
Q 2819 -91 2113 -91 
Q 1303 -91 875 529 
Q 447 1150 447 2328 
Q 447 3434 972 4092 
Q 1497 4750 2381 4750 
Q 2619 4750 2861 4703 
Q 3103 4656 3366 4563 
z
" transform="scale(0.015625)"/>
       </defs>
       <use xlink:href="#DejaVuSans-30"/>
       <use xlink:href="#DejaVuSans-2e" x="63.623047"/>
       <use xlink:href="#DejaVuSans-36" x="95.410156"/>
      </g>
     </g>
    </g>
    <g id="ytick_5">
     <g id="line2d_10">
      <g>
       <use xlink:href="#mafe3d87ad4" x="33.73" y="173.451856" style="fill: var(--text); stroke: var(--text); stroke-width: 0.8"/>
      </g>
     </g>
     <g id="text_11">
      <!-- 0.8 -->
      <g style="fill: var(--text)" transform="translate(10.826875 177.251075) scale(0.1 -0.1)">
       <defs>
        <path id="DejaVuSans-38" d="M 2034 2216 
Q 1584 2216 1326 1975 
Q 1069 1734 1069 1313 
Q 1069 891 1326 650 
Q 1584 409 2034 409 
Q 2484 409 2743 651 
Q 3003 894 3003 1313 
Q 3003 1734 2745 1975 
Q 2488 2216 2034 2216 
z
M 1403 2484 
Q 997 2584 770 2862 
Q 544 3141 544 3541 
Q 544 4100 942 4425 
Q 1341 4750 2034 4750 
Q 2731 4750 3128 4425 
Q 3525 4100 3525 3541 
Q 3525 3141 3298 2862 
Q 3072 2584 2669 2484 
Q 3125 2378 3379 2068 
Q 3634 1759 3634 1313 
Q 3634 634 3220 271 
Q 2806 -91 2034 -91 
Q 1263 -91 848 271 
Q 434 634 434 1313 
Q 434 1759 690 2068 
Q 947 2378 1403 2484 
z
M 1172 3481 
Q 1172 3119 1398 2916 
Q 1625 2713 2034 2713 
Q 2441 2713 2670 2916 
Q 2900 3119 2900 3481 
Q 2900 3844 2670 4047 
Q 2441 4250 2034 4250 
Q 1625 4250 1398 4047 
Q 1172 3844 1172 3481 
z
" transform="scale(0.015625)"/>
       </defs>
       <use xlink:href="#DejaVuSans-30"/>
       <use xlink:href="#DejaVuSans-2e" x="63.623047"/>
       <use xlink:href="#DejaVuSans-38" x="95.410156"/>
      </g>
     </g>
    </g>
    <g id="ytick_6">
     <g id="line2d_11">
      <g>
       <use xlink:href="#mafe3d87ad4" x="33.73" y="137.30482" style="fill: var(--text); stroke: var(--text); stroke-width: 0.8"/>
      </g>
     </g>
     <g id="text_12">
      <!-- 1.0 -->
      <g style="fill: var(--text)" transform="translate(10.826875 141.104038) scale(0.1 -0.1)">
       <use xlink:href="#DejaVuSans-31"/>
       <use xlink:href="#DejaVuSans-2e" x="63.623047"/>
       <use xlink:href="#DejaVuSans-30" x="95.410156"/>
      </g>
     </g>
    </g>
    <g id="ytick_7">
     <g id="line2d_12">
      <g>
       <use xlink:href="#mafe3d87ad4" x="33.73" y="101.157784" style="fill: var(--text); stroke: var(--text); stroke-width: 0.8"/>
      </g>
     </g>
     <g id="text_13">
      <!-- 1.2 -->
      <g style="fill: var(--text)" transform="translate(10.826875 104.957002) scale(0.1 -0.1)">
       <use xlink:href="#DejaVuSans-31"/>
       <use xlink:href="#DejaVuSans-2e" x="63.623047"/>
       <use xlink:href="#DejaVuSans-32" x="95.410156"/>
      </g>
     </g>
    </g>
    <g id="ytick_8">
     <g id="line2d_13">
      <g>
       <use xlink:href="#mafe3d87ad4" x="33.73" y="65.010748" style="fill: var(--text); stroke: var(--text); stroke-width: 0.8"/>
      </g>
     </g>
     <g id="text_14">
      <!-- 1.4 -->
      <g style="fill: var(--text)" transform="translate(10.826875 68.809966) scale(0.1 -0.1)">
       <use xlink:href="#DejaVuSans-31"/>
       <use xlink:href="#DejaVuSans-2e" x="63.623047"/>
       <use xlink:href="#DejaVuSans-34" x="95.410156"/>
      </g>
     </g>
    </g>
    <g id="ytick_9">
     <g id="line2d_14">
      <g>
       <use xlink:href="#mafe3d87ad4" x="33.73" y="28.863712" style="fill: var(--text); stroke: var(--text); stroke-width: 0.8"/>
      </g>
     </g>
     <g id="text_15">
      <!-- 1.6 -->
      <g style="fill: var(--text)" transform="translate(10.826875 32.66293) scale(0.1 -0.1)">
       <use xlink:href="#DejaVuSans-31"/>
       <use xlink:href="#DejaVuSans-2e" x="63.623047"/>
       <use xlink:href="#DejaVuSans-36" x="95.410156"/>
      </g>
     </g>
    </g>
   </g>
   <g id="line2d_15">
    <path d="M 52.029318 318.04 
L 167.912776 317.942932 
L 174.513732 317.705717 
L 178.91437 317.321003 
L 181.848129 316.872717 
L 184.781887 316.183948 
L 186.982206 315.447482 
L 189.182525 314.460923 
L 191.382843 313.156419 
L 192.849723 312.071114 
L 194.316602 310.782461 
L 195.783481 309.261368 
L 197.25036 307.476555 
L 198.717239 305.394802 
L 200.184119 302.981318 
L 201.650998 300.200215 
L 203.117877 297.015118 
L 204.584756 293.389892 
L 206.051636 289.289501 
L 207.518515 284.680983 
L 208.985394 279.534532 
L 211.185713 270.751985 
L 213.386032 260.641876 
L 215.58635 249.180759 
L 217.786669 236.39216 
L 219.986988 222.354727 
L 222.920746 201.946781 
L 226.587945 174.47325 
L 233.188901 124.164023 
L 236.122659 103.835205 
L 238.322978 90.331629 
L 239.789857 82.396483 
L 241.256737 75.449775 
L 242.723616 69.593776 
L 244.190495 64.916303 
L 244.923935 63.042457 
L 245.657374 61.488527 
L 246.390814 60.260514 
L 247.124254 59.363175 
L 247.857693 58.799999 
L 248.591133 58.573178 
L 249.324572 58.683596 
L 250.058012 59.130823 
L 250.791452 59.913116 
L 251.524891 61.027433 
L 252.258331 62.469452 
L 252.99177 64.233596 
L 254.45865 68.69992 
L 255.925529 74.358301 
L 257.392408 81.123648 
L 258.859287 88.896015 
L 261.059606 102.194232 
L 263.259925 117.086051 
L 266.193683 138.651289 
L 275.728398 210.599279 
L 278.662157 230.245035 
L 280.862475 243.60691 
L 283.062794 255.669328 
L 285.263113 266.384958 
L 287.463432 275.757277 
L 289.663751 283.83173 
L 291.13063 288.53109 
L 292.597509 292.716919 
L 294.064388 296.421716 
L 295.531268 299.680232 
L 296.998147 302.528477 
L 298.465026 305.002839 
L 299.931905 307.139337 
L 301.398784 308.97299 
L 302.865664 310.537318 
L 304.332543 311.863956 
L 305.799422 312.982389 
L 307.999741 314.328384 
L 310.20006 315.347855 
L 312.400378 316.110024 
L 315.334137 316.824044 
L 318.267895 317.289676 
L 321.935093 317.641473 
L 327.069171 317.884392 
L 335.137006 318.008788 
L 357.873634 318.039855 
L 418.015682 318.04 
L 418.015682 318.04 
" clip-path="url(#p0387f43789)" style="fill: none; stroke: var(--danger); stroke-width: 3; stroke-linecap: square"/>
   </g>
   <g id="patch_23">
    <path d="M 33.73 318.04 
L 33.73 26.88 
" style="fill: none; stroke: var(--border); stroke-width: 0.8; stroke-linejoin: miter; stroke-linecap: square"/>
   </g>
   <g id="patch_24">
    <path d="M 436.315 318.04 
L 436.315 26.88 
" style="fill: none; stroke: var(--border); stroke-width: 0.8; stroke-linejoin: miter; stroke-linecap: square"/>
   </g>
   <g id="patch_25">
    <path d="M 33.73 318.04 
L 436.315 318.04 
" style="fill: none; stroke: var(--border); stroke-width: 0.8; stroke-linejoin: miter; stroke-linecap: square"/>
   </g>
   <g id="patch_26">
    <path d="M 33.73 26.88 
L 436.315 26.88 
" style="fill: none; stroke: var(--border); stroke-width: 0.8; stroke-linejoin: miter; stroke-linecap: square"/>
   </g>
   <g id="text_16">
    <!-- Won Maps -->
    <g style="fill: var(--text)" transform="translate(204.273437 20.88) scale(0.12 -0.12)">
     <defs>
      <path id="DejaVuSans-57" d="M 213 4666 
L 850 4666 
L 1831 722 
L 2809 4666 
L 3519 4666 
L 4500 722 
L 5478 4666 
L 6119 4666 
L 4947 0 
L 4153 0 
L 3169 4050 
L 2175 0 
L 1381 0 
L 213 4666 
z
" transform="scale(0.015625)"/>
      <path id="DejaVuSans-6f" d="M 1959 3097 
Q 1497 3097 1228 2736 
Q 959 2375 959 1747 
Q 959 1119 1226 758 
Q 1494 397 1959 397 
Q 2419 397 2687 759 
Q 2956 1122 2956 1747 
Q 2956 2369 2687 2733 
Q 2419 3097 1959 3097 
z
M 1959 3584 
Q 2709 3584 3137 3096 
Q 3566 2609 3566 1747 
Q 3566 888 3137 398 
Q 2709 -91 1959 -91 
Q 1206 -91 779 398 
Q 353 888 353 1747 
Q 353 2609 779 3096 
Q 1206 3584 1959 3584 
z
" transform="scale(0.015625)"/>
      <path id="DejaVuSans-4d" d="M 628 4666 
L 1569 4666 
L 2759 1491 
L 3956 4666 
L 4897 4666 
L 4897 0 
L 4281 0 
L 4281 4097 
L 3078 897 
L 2444 897 
L 1241 4097 
L 1241 0 
L 628 0 
L 628 4666 
z
" transform="scale(0.015625)"/>
      <path id="DejaVuSans-70" d="M 1159 525 
L 1159 -1331 
L 581 -1331 
L 581 3500 
L 1159 3500 
L 1159 2969 
Q 1341 3281 1617 3432 
Q 1894 3584 2278 3584 
Q 2916 3584 3314 3078 
Q 3713 2572 3713 1747 
Q 3713 922 3314 415 
Q 2916 -91 2278 -91 
Q 1894 -91 1617 61 
Q 1341 213 1159 525 
z
M 3116 1747 
Q 3116 2381 2855 2742 
Q 2594 3103 2138 3103 
Q 1681 3103 1420 2742 
Q 1159 2381 1159 1747 
Q 1159 1113 1420 752 
Q 1681 391 2138 391 
Q 2594 391 2855 752 
Q 3116 1113 3116 1747 
z
" transform="scale(0.015625)"/>
      <path id="DejaVuSans-73" d="M 2834 3397 
L 2834 2853 
Q 2591 2978 2328 3040 
Q 2066 3103 1784 3103 
Q 1356 3103 1142 2972 
Q 928 2841 928 2578 
Q 928 2378 1081 2264 
Q 1234 2150 1697 2047 
L 1894 2003 
Q 2506 1872 2764 1633 
Q 3022 1394 3022 966 
Q 3022 478 2636 193 
Q 2250 -91 1575 -91 
Q 1294 -91 989 -36 
Q 684 19 347 128 
L 347 722 
Q 666 556 975 473 
Q 1284 391 1588 391 
Q 1994 391 2212 530 
Q 2431 669 2431 922 
Q 2431 1156 2273 1281 
Q 2116 1406 1581 1522 
L 1381 1569 
Q 847 1681 609 1914 
Q 372 2147 372 2553 
Q 372 3047 722 3315 
Q 1072 3584 1716 3584 
Q 2034 3584 2315 3537 
Q 2597 3491 2834 3397 
z
" transform="scale(0.015625)"/>
     </defs>
     <use xlink:href="#DejaVuSans-57"/>
     <use xlink:href="#DejaVuSans-6f" x="93.001953"/>
     <use xlink:href="#DejaVuSans-6e" x="154.183594"/>
     <use xlink:href="#DejaVuSans-20" x="217.5625"/>
     <use xlink:href="#DejaVuSans-4d" x="249.349609"/>
     <use xlink:href="#DejaVuSans-61" x="335.628906"/>
     <use xlink:href="#DejaVuSans-70" x="396.908203"/>
     <use xlink:href="#DejaVuSans-73" x="460.384766"/>
    </g>
   </g>
   <g id="legend_1">
    <g id="patch_27">
     <path d="M 352.838437 49.558125 
L 429.315 49.558125 
Q 431.315 49.558125 431.315 47.558125 
L 431.315 33.88 
Q 431.315 31.88 429.315 31.88 
L 352.838437 31.88 
Q 350.838437 31.88 350.838437 33.88 
L 350.838437 47.558125 
Q 350.838437 49.558125 352.838437 49.558125 
z
" style="fill: var(--surface); opacity: 0.8; stroke: var(--border); stroke-linejoin: miter"/>
    </g>
    <g id="line2d_16">
     <path d="M 354.838437 39.978438 
L 364.838437 39.978438 
L 374.838437 39.978438 
" style="fill: none; stroke: var(--danger); stroke-width: 3; stroke-linecap: square"/>
    </g>
    <g id="text_17">
     <!-- gaussian -->
     <g style="fill: var(--text)" transform="translate(382.838437 43.478438) scale(0.1 -0.1)">
      <defs>
       <path id="DejaVuSans-75" d="M 544 1381 
L 544 3500 
L 1119 3500 
L 1119 1403 
Q 1119 906 1312 657 
Q 1506 409 1894 409 
Q 2359 409 2629 706 
Q 2900 1003 2900 1516 
L 2900 3500 
L 3475 3500 
L 3475 0 
L 2900 0 
L 2900 538 
Q 2691 219 2414 64 
Q 2138 -91 1772 -91 
Q 1169 -91 856 284 
Q 544 659 544 1381 
z
M 1991 3584 
L 1991 3584 
z
" transform="scale(0.015625)"/>
      </defs>
      <use xlink:href="#DejaVuSans-67"/>
      <use xlink:href="#DejaVuSans-61" x="63.476562"/>
      <use xlink:href="#DejaVuSans-75" x="124.755859"/>
      <use xlink:href="#DejaVuSans-73" x="188.134766"/>
      <use xlink:href="#DejaVuSans-73" x="240.234375"/>
      <use xlink:href="#DejaVuSans-69" x="292.333984"/>
      <use xlink:href="#DejaVuSans-61" x="320.117188"/>
      <use xlink:href="#DejaVuSans-6e" x="381.396484"/>
     </g>
    </g>
   </g>
  </g>
  <g id="axes_2">
   <g id="patch_28">
    <path d="M 450.615 318.04 
L 853.2 318.04 
L 853.2 26.88 
L 450.615 26.88 
z
" style="fill: var(--surface)"/>
   </g>
   <g id="patch_29">
    <path d="M 496.709992 318.04 
L 507.534079 318.04 
L 507.534079 317.974272 
L 496.709992 317.974272 
z
" clip-path="url(#p36fc33dd9d)" style="fill: var(--accent); opacity: 0.9"/>
   </g>
   <g id="patch_30">
    <path d="M 507.534079 318.04 
L 518.358166 318.04 
L 518.358166 317.777088 
L 507.534079 317.777088 
z
" clip-path="url(#p36fc33dd9d)" style="fill: var(--accent); opacity: 0.9"/>
   </g>
   <g id="patch_31">
    <path d="M 518.358166 318.04 
L 529.182253 318.04 
L 529.182253 317.974272 
L 518.358166 317.974272 
z
" clip-path="url(#p36fc33dd9d)" style="fill: var(--accent); opacity: 0.9"/>
   </g>
   <g id="patch_32">
    <path d="M 529.182253 318.04 
L 540.00634 318.04 
L 540.00634 317.38272 
L 529.182253 317.38272 
z
" clip-path="url(#p36fc33dd9d)" style="fill: var(--accent); opacity: 0.9"/>
   </g>
   <g id="patch_33">
    <path d="M 540.00634 318.04 
L 550.830428 318.04 
L 550.830428 315.739522 
L 540.00634 315.739522 
z
" clip-path="url(#p36fc33dd9d)" style="fill: var(--accent); opacity: 0.9"/>
   </g>
   <g id="patch_34">
    <path d="M 550.830428 318.04 
L 561.654515 318.04 
L 561.654515 315.082242 
L 550.830428 315.082242 
z
" clip-path="url(#p36fc33dd9d)" style="fill: var(--accent); opacity: 0.9"/>
   </g>
   <g id="patch_35">
    <path d="M 561.654515 318.04 
L 572.478602 318.04 
L 572.478602 311.59866 
L 561.654515 311.59866 
z
" clip-path="url(#p36fc33dd9d)" style="fill: var(--accent); opacity: 0.9"/>
   </g>
   <g id="patch_36">
    <path d="M 572.478602 318.04 
L 583.302689 318.04 
L 583.302689 302.59393 
L 572.478602 302.59393 
z
" clip-path="url(#p36fc33dd9d)" style="fill: var(--accent); opacity: 0.9"/>
   </g>
   <g id="patch_37">
    <path d="M 583.302689 318.04 
L 594.126776 318.04 
L 594.126776 291.420177 
L 583.302689 291.420177 
z
" clip-path="url(#p36fc33dd9d)" style="fill: var(--accent); opacity: 0.9"/>
   </g>
   <g id="patch_38">
    <path d="M 594.126776 318.04 
L 604.950864 318.04 
L 604.950864 269.335584 
L 594.126776 269.335584 
z
" clip-path="url(#p36fc33dd9d)" style="fill: var(--accent); opacity: 0.9"/>
   </g>
   <g id="patch_39">
    <path d="M 604.950864 318.04 
L 615.774951 318.04 
L 615.774951 227.138236 
L 604.950864 227.138236 
z
" clip-path="url(#p36fc33dd9d)" style="fill: var(--accent); opacity: 0.9"/>
   </g>
   <g id="patch_40">
    <path d="M 615.774951 318.04 
L 626.599038 318.04 
L 626.599038 192.56533 
L 615.774951 192.56533 
z
" clip-path="url(#p36fc33dd9d)" style="fill: var(--accent); opacity: 0.9"/>
   </g>
   <g id="patch_41">
    <path d="M 626.599038 318.04 
L 637.423125 318.04 
L 637.423125 114.08615 
L 626.599038 114.08615 
z
" clip-path="url(#p36fc33dd9d)" style="fill: var(--accent); opacity: 0.9"/>
   </g>
   <g id="patch_42">
    <path d="M 637.423125 318.04 
L 648.247212 318.04 
L 648.247212 90.686997 
L 637.423125 90.686997 
z
" clip-path="url(#p36fc33dd9d)" style="fill: var(--accent); opacity: 0.9"/>
   </g>
   <g id="patch_43">
    <path d="M 648.247212 318.04 
L 659.071299 318.04 
L 659.071299 110.53684 
L 648.247212 110.53684 
z
" clip-path="url(#p36fc33dd9d)" style="fill: var(--accent); opacity: 0.9"/>
   </g>
   <g id="patch_44">
    <path d="M 659.071299 318.04 
L 669.895387 318.04 
L 669.895387 169.560546 
L 659.071299 169.560546 
z
" clip-path="url(#p36fc33dd9d)" style="fill: var(--accent); opacity: 0.9"/>
   </g>
   <g id="patch_45">
    <path d="M 669.895387 318.04 
L 680.719474 318.04 
L 680.719474 235.485686 
L 669.895387 235.485686 
z
" clip-path="url(#p36fc33dd9d)" style="fill: var(--accent); opacity: 0.9"/>
   </g>
   <g id="patch_46">
    <path d="M 680.719474 318.04 
L 691.543561 318.04 
L 691.543561 291.157266 
L 680.719474 291.157266 
z
" clip-path="url(#p36fc33dd9d)" style="fill: var(--accent); opacity: 0.9"/>
   </g>
   <g id="patch_47">
    <path d="M 691.543561 318.04 
L 702.367648 318.04 
L 702.367648 313.176131 
L 691.543561 313.176131 
z
" clip-path="url(#p36fc33dd9d)" style="fill: var(--accent); opacity: 0.9"/>
   </g>
   <g id="patch_48">
    <path d="M 702.367648 318.04 
L 713.191735 318.04 
L 713.191735 317.316992 
L 702.367648 317.316992 
z
" clip-path="url(#p36fc33dd9d)" style="fill: var(--accent); opacity: 0.9"/>
   </g>
   <g id="matplotlib.axis_3">
    <g id="xtick_6">
     <g id="line2d_17">
      <g>
       <use xlink:href="#mdc78d85ec4" x="505.512955" y="318.04" style="fill: var(--text); stroke: var(--text); stroke-width: 0.8"/>
      </g>
     </g>
     <g id="text_18">
      <!-- −2 -->
      <g style="fill: var(--text)" transform="translate(498.141861 332.638438) scale(0.1 -0.1)">
       <use xlink:href="#DejaVuSans-2212"/>
       <use xlink:href="#DejaVuSans-32" x="83.789062"/>
      </g>
     </g>
    </g>
    <g id="xtick_7">
     <g id="line2d_18">
      <g>
       <use xlink:href="#mdc78d85ec4" x="578.710227" y="318.04" style="fill: var(--text); stroke: var(--text); stroke-width: 0.8"/>
      </g>
     </g>
     <g id="text_19">
      <!-- −1 -->
      <g style="fill: var(--text)" transform="translate(571.339134 332.638438) scale(0.1 -0.1)">
       <use xlink:href="#DejaVuSans-2212"/>
       <use xlink:href="#DejaVuSans-31" x="83.789062"/>
      </g>
     </g>
    </g>
    <g id="xtick_8">
     <g id="line2d_19">
      <g>
       <use xlink:href="#mdc78d85ec4" x="651.9075" y="318.04" style="fill: var(--text); stroke: var(--text); stroke-width: 0.8"/>
      </g>
     </g>
     <g id="text_20">
      <!-- 0 -->
      <g style="fill: var(--text)" transform="translate(648.72625 332.638438) scale(0.1 -0.1)">
       <use xlink:href="#DejaVuSans-30"/>
      </g>
     </g>
    </g>
    <g id="xtick_9">
     <g id="line2d_20">
      <g>
       <use xlink:href="#mdc78d85ec4" x="725.104773" y="318.04" style="fill: var(--text); stroke: var(--text); stroke-width: 0.8"/>
      </g>
     </g>
     <g id="text_21">
      <!-- 1 -->
      <g style="fill: var(--text)" transform="translate(721.923523 332.638438) scale(0.1 -0.1)">
       <use xlink:href="#DejaVuSans-31"/>
      </g>
     </g>
    </g>
    <g id="xtick_10">
     <g id="line2d_21">
      <g>
       <use xlink:href="#mdc78d85ec4" x="798.302045" y="318.04" style="fill: var(--text); stroke: var(--text); stroke-width: 0.8"/>
      </g>
     </g>
     <g id="text_22">
      <!-- 2 -->
      <g style="fill: var(--text)" transform="translate(795.120795 332.638438) scale(0.1 -0.1)">
       <use xlink:href="#DejaVuSans-32"/>
      </g>
     </g>
    </g>
    <g id="text_23">
     <!-- HLTV Rating 3.0 -->
     <g style="fill: var(--text)" transform="translate(612.327031 346.316563) scale(0.1 -0.1)">
      <use xlink:href="#DejaVuSans-48"/>
      <use xlink:href="#DejaVuSans-4c" x="75.195312"/>
      <use xlink:href="#DejaVuSans-54" x="117.158203"/>
      <use xlink:href="#DejaVuSans-56" x="178.242188"/>
      <use xlink:href="#DejaVuSans-20" x="246.650391"/>
      <use xlink:href="#DejaVuSans-52" x="278.4375"/>
      <use xlink:href="#DejaVuSans-61" x="345.669922"/>
      <use xlink:href="#DejaVuSans-74" x="406.949219"/>
      <use xlink:href="#DejaVuSans-69" x="446.158203"/>
      <use xlink:href="#DejaVuSans-6e" x="473.941406"/>
      <use xlink:href="#DejaVuSans-67" x="537.320312"/>
      <use xlink:href="#DejaVuSans-20" x="600.796875"/>
      <use xlink:href="#DejaVuSans-33" x="632.583984"/>
      <use xlink:href="#DejaVuSans-2e" x="696.207031"/>
      <use xlink:href="#DejaVuSans-30" x="727.994141"/>
     </g>
    </g>
   </g>
   <g id="matplotlib.axis_4">
    <g id="ytick_10">
     <g id="line2d_22">
      <g>
       <use xlink:href="#mafe3d87ad4" x="450.615" y="318.04" style="fill: var(--text); stroke: var(--text); stroke-width: 0.8"/>
      </g>
     </g>
    </g>
    <g id="ytick_11">
     <g id="line2d_23">
      <g>
       <use xlink:href="#mafe3d87ad4" x="450.615" y="281.892964" style="fill: var(--text); stroke: var(--text); stroke-width: 0.8"/>
      </g>
     </g>
    </g>
    <g id="ytick_12">
     <g id="line2d_24">
      <g>
       <use xlink:href="#mafe3d87ad4" x="450.615" y="245.745928" style="fill: var(--text); stroke: var(--text); stroke-width: 0.8"/>
      </g>
     </g>
    </g>
    <g id="ytick_13">
     <g id="line2d_25">
      <g>
       <use xlink:href="#mafe3d87ad4" x="450.615" y="209.598892" style="fill: var(--text); stroke: var(--text); stroke-width: 0.8"/>
      </g>
     </g>
    </g>
    <g id="ytick_14">
     <g id="line2d_26">
      <g>
       <use xlink:href="#mafe3d87ad4" x="450.615" y="173.451856" style="fill: var(--text); stroke: var(--text); stroke-width: 0.8"/>
      </g>
     </g>
    </g>
    <g id="ytick_15">
     <g id="line2d_27">
      <g>
       <use xlink:href="#mafe3d87ad4" x="450.615" y="137.30482" style="fill: var(--text); stroke: var(--text); stroke-width: 0.8"/>
      </g>
     </g>
    </g>
    <g id="ytick_16">
     <g id="line2d_28">
      <g>
       <use xlink:href="#mafe3d87ad4" x="450.615" y="101.157784" style="fill: var(--text); stroke: var(--text); stroke-width: 0.8"/>
      </g>
     </g>
    </g>
    <g id="ytick_17">
     <g id="line2d_29">
      <g>
       <use xlink:href="#mafe3d87ad4" x="450.615" y="65.010748" style="fill: var(--text); stroke: var(--text); stroke-width: 0.8"/>
      </g>
     </g>
    </g>
    <g id="ytick_18">
     <g id="line2d_30">
      <g>
       <use xlink:href="#mafe3d87ad4" x="450.615" y="28.863712" style="fill: var(--text); stroke: var(--text); stroke-width: 0.8"/>
      </g>
     </g>
    </g>
   </g>
   <g id="line2d_31">
    <path d="M 468.914318 318.04 
L 544.458598 317.929307 
L 551.792994 317.700618 
L 556.927071 317.335103 
L 560.594269 316.883387 
L 563.528027 316.348657 
L 566.461786 315.601924 
L 568.662105 314.862601 
L 570.862423 313.932355 
L 573.062742 312.772424 
L 575.263061 311.33922 
L 577.46338 309.584552 
L 579.663699 307.456127 
L 581.864018 304.898368 
L 584.064336 301.853585 
L 586.264655 298.263531 
L 588.464974 294.071351 
L 590.665293 289.22391 
L 592.865612 283.674454 
L 595.06593 277.385545 
L 597.266249 270.33216 
L 599.466568 262.504836 
L 601.666887 253.912683 
L 603.867206 244.586113 
L 606.800964 231.105099 
L 609.734723 216.614896 
L 614.13536 193.618695 
L 620.736317 158.912967 
L 623.670075 144.614934 
L 625.870394 134.787202 
L 628.070713 125.958266 
L 629.537592 120.72349 
L 631.004471 116.071443 
L 632.47135 112.049553 
L 633.93823 108.699443 
L 635.405109 106.056211 
L 636.871988 104.147821 
L 637.605428 103.475855 
L 638.338867 102.994609 
L 639.072307 102.705373 
L 639.805746 102.608923 
L 640.539186 102.70552 
L 641.272626 102.994903 
L 642.006065 103.476296 
L 642.739505 104.148406 
L 643.472945 105.009435 
L 644.939824 107.288556 
L 646.406703 110.289451 
L 647.873582 113.980519 
L 649.340461 118.323312 
L 650.807341 123.273207 
L 653.007659 131.725637 
L 655.207978 141.243175 
L 658.141737 155.237005 
L 661.808935 174.114065 
L 671.34365 223.97338 
L 674.277408 237.988585 
L 677.211166 250.885611 
L 679.411485 259.726882 
L 681.611804 267.810966 
L 683.812123 275.121939 
L 686.012442 281.663403 
L 688.212761 287.455545 
L 690.413079 292.532017 
L 692.613398 296.936805 
L 694.813717 300.721232 
L 697.014036 303.941189 
L 699.214355 306.654695 
L 701.414673 308.919817 
L 703.614992 310.792985 
L 705.815311 312.327694 
L 708.01563 313.573571 
L 710.215949 314.575774 
L 712.416268 315.374685 
L 715.350026 316.184381 
L 718.283784 316.766494 
L 721.950982 317.26038 
L 726.35162 317.619955 
L 732.219137 317.864861 
L 741.753852 318.002599 
L 765.957359 318.039624 
L 834.900682 318.04 
L 834.900682 318.04 
" clip-path="url(#p36fc33dd9d)" style="fill: none; stroke: var(--danger); stroke-width: 3; stroke-linecap: square"/>
   </g>
   <g id="patch_49">
    <path d="M 450.615 318.04 
L 450.615 26.88 
" style="fill: none; stroke: var(--border); stroke-width: 0.8; stroke-linejoin: miter; stroke-linecap: square"/>
   </g>
   <g id="patch_50">
    <path d="M 853.2 318.04 
L 853.2 26.88 
" style="fill: none; stroke: var(--border); stroke-width: 0.8; stroke-linejoin: miter; stroke-linecap: square"/>
   </g>
   <g id="patch_51">
    <path d="M 450.615 318.04 
L 853.2 318.04 
" style="fill: none; stroke: var(--border); stroke-width: 0.8; stroke-linejoin: miter; stroke-linecap: square"/>
   </g>
   <g id="patch_52">
    <path d="M 450.615 26.88 
L 853.2 26.88 
" style="fill: none; stroke: var(--border); stroke-width: 0.8; stroke-linejoin: miter; stroke-linecap: square"/>
   </g>
   <g id="text_24">
    <!-- Lost Maps -->
    <g style="fill: var(--text)" transform="translate(621.825 20.88) scale(0.12 -0.12)">
     <use xlink:href="#DejaVuSans-4c"/>
     <use xlink:href="#DejaVuSans-6f" x="53.962891"/>
     <use xlink:href="#DejaVuSans-73" x="115.144531"/>
     <use xlink:href="#DejaVuSans-74" x="167.244141"/>
     <use xlink:href="#DejaVuSans-20" x="206.453125"/>
     <use xlink:href="#DejaVuSans-4d" x="238.240234"/>
     <use xlink:href="#DejaVuSans-61" x="324.519531"/>
     <use xlink:href="#DejaVuSans-70" x="385.798828"/>
     <use xlink:href="#DejaVuSans-73" x="449.275391"/>
    </g>
   </g>
   <g id="legend_2">
    <g id="patch_53">
     <path d="M 769.723437 49.558125 
L 846.2 49.558125 
Q 848.2 49.558125 848.2 47.558125 
L 848.2 33.88 
Q 848.2 31.88 846.2 31.88 
L 769.723437 31.88 
Q 767.723437 31.88 767.723437 33.88 
L 767.723437 47.558125 
Q 767.723437 49.558125 769.723437 49.558125 
z
" style="fill: var(--surface); opacity: 0.8; stroke: var(--border); stroke-linejoin: miter"/>
    </g>
    <g id="line2d_32">
     <path d="M 771.723437 39.978438 
L 781.723437 39.978438 
L 791.723437 39.978438 
" style="fill: none; stroke: var(--danger); stroke-width: 3; stroke-linecap: square"/>
    </g>
    <g id="text_25">
     <!-- gaussian -->
     <g style="fill: var(--text)" transform="translate(799.723437 43.478438) scale(0.1 -0.1)">
      <use xlink:href="#DejaVuSans-67"/>
      <use xlink:href="#DejaVuSans-61" x="63.476562"/>
      <use xlink:href="#DejaVuSans-75" x="124.755859"/>
      <use xlink:href="#DejaVuSans-73" x="188.134766"/>
      <use xlink:href="#DejaVuSans-73" x="240.234375"/>
      <use xlink:href="#DejaVuSans-69" x="292.333984"/>
      <use xlink:href="#DejaVuSans-61" x="320.117188"/>
      <use xlink:href="#DejaVuSans-6e" x="381.396484"/>
     </g>
    </g>
   </g>
  </g>
 </g>
 <defs>
  <clipPath id="p0387f43789">
   <rect x="33.73" y="26.88" width="402.585" height="291.16"/>
  </clipPath>
  <clipPath id="p36fc33dd9d">
   <rect x="450.615" y="26.88" width="402.585" height="291.16"/>
  </clipPath>
 </defs>
</svg>
